# xmcd
#
# Track frame offsets:
#	182
#	17602
#	35507
#	54137
#	75685
#	92810
#	108155
#	127670
#	139820
#	162515
#	175860
#	195602
#
# Disc length: 2863 seconds
#
# Revision: 0
# Processed by: cddbd v1.5PL3 Copyright (c) Steve Scherf et al.
# Submitted via: dBpowerAMP V4.0
#
DISCID=8e0b2d0c
DTITLE=Various Artist - Na Cadência do Samba
DYEAR=1900
DGENRE=Samba
TTITLE0=Beth Carvalho/Sonhando Eu Sou Feliz
TTITLE1=Alcione/Sufoco
TTITLE2=Agepê/Virou Mania
TTITLE3=Emilio Santiago/Logo Agora
TTITLE4=Gal Costa/É Luxo Só
TTITLE5=Marçal/BumBum Paticumbum Prugurundum
TTITLE6=Caetano Veloso/É Hoje
TTITLE7=Elis Regina/É Com Esse Que Eu Vou
TTITLE8=Grupo Pirraça/Sentimento de Posse
TTITLE9=Maria Bethânia/Sonho Meu
TTITLE10=João Bosco/Nação
TTITLE11=Silvinho/O Amanhã
EXTD=
EXTT0=
EXTT1=
EXTT2=
EXTT3=
EXTT4=
EXTT5=
EXTT6=
EXTT7=
EXTT8=
EXTT9=
EXTT10=
EXTT11=
PLAYORDER=
